<?xml version="1.0" encoding="UTF-8"?>
<svg id="Capa_1" xmlns="http://www.w3.org/2000/svg" version="1.1" viewBox="0 0 100 100">
  <!-- Generator: Adobe Illustrator 29.3.1, SVG Export Plug-In . SVG Version: 2.1.0 Build 151)  -->
  <defs>
    <style>
      .st0, .st1, .st2 {
        fill: none;
        stroke: #000;
        stroke-width: .5px;
      }

      .st0, .st2 {
        stroke-linecap: round;
      }

      .st2 {
        stroke-linejoin: round;
      }
    </style>
  </defs>
  <g id="SVGRepo_iconCarrier">
    <ellipse class="st1" cx="83.54" cy="10.14" rx="5.27" ry="5.81" transform="translate(-.55 13.45) rotate(-9.17)"/>
    <path class="st0" d="M62.21,10.33c2.29-2.04,5.1-3.45,8.26-3.96,1.19-.19,2.37-.25,3.53-.18M56.98,18.35c-1.02,3.05-1.34,6.45-.78,9.93.49,3.06,1.61,5.84,3.18,8.22.42.63.65,1.39.59,2.16l-.35,4.42c-.15,1.92,1.66,3.36,3.25,2.6l3.68-1.76c.64-.3,1.36-.31,2.03-.07,2.53.9,5.27,1.2,8.05.75,9.58-1.55,15.97-11.36,14.26-21.92-.21-1.31-.54-2.57-.96-3.77"/>
  </g>
  <g id="SVGRepo_iconCarrier1" data-name="SVGRepo_iconCarrier">
    <path class="st2" d="M28.49,83.76l-.73-4.53M38.63,67.07c-1.19.13-2.64.36-4.51.66l-16.01,2.59c-1.87.3-3.32.54-4.49.79M38.63,67.07c1.48-.16,2.56-.14,3.52.13,1.52.42,2.83,1.28,3.76,2.44,1.05,1.32,1.36,3.23,1.98,7.03l.51,3.17c.62,3.81.92,5.71.34,7.3-.51,1.4-1.49,2.62-2.8,3.5-1.49,1-3.59,1.34-7.79,2.02l-16.01,2.59c-4.2.68-6.3,1.02-8.03.54-1.52-.42-2.83-1.28-3.76-2.44-1.05-1.32-1.36-3.23-1.98-7.03l-.51-3.17c-.62-3.81-.92-5.71-.34-7.3.51-1.4,1.49-2.62,2.8-3.5.82-.56,1.84-.91,3.3-1.23M38.63,67.07l-.74-4.6c-1.01-6.26-7.43-10.43-14.34-9.31-6.91,1.12-11.69,7.09-10.68,13.35l.74,4.6"/>
  </g>
</svg>