<?xml version="1.0" encoding="UTF-8"?>
<svg id="Capa_1" xmlns="http://www.w3.org/2000/svg" version="1.1" viewBox="0 0 32 32">
  <!-- Generator: Adobe Illustrator 29.3.1, SVG Export Plug-In . SVG Version: 2.1.0 Build 151)  -->
  <defs>
    <style>
      .st0 {
        fill: #fff;
      }

      .st1 {
        fill: #47428d;
      }

      .st2 {
        fill: none;
        stroke: #1d1d1b;
        stroke-miterlimit: 10;
        stroke-width: 2px;
      }

      .st3 {
        fill: #ededed;
      }
    </style>
  </defs>
  <path class="st3" d="M27,5.52c-1.14-1.01-3.43-2.75-6.76-3.51-5.21-1.19-11.29.38-15.18,4.73C.86,11.41,1.28,16.99,1.36,17.84c.5,5.39,3.87,8.7,4.75,9.52.43-.88,1.17-2.15,2.43-3.35,1.43-1.37,2.55-1.73,3.73-2.43,3.94-2.34,2.61-4.99,6.59-8.22,2.49-2.02,3.88-1.68,5.94-4.09,1.17-1.37,1.82-2.76,2.19-3.75Z"/>
  <path class="st1" d="M5.6,27.34c1.15,1.04,3.44,2.83,6.78,3.62,5.23,1.23,11.33-.39,15.24-4.87,4.21-4.83,3.79-10.58,3.71-11.46-.5-5.56-3.88-8.97-4.77-9.82-.43.91-1.18,2.22-2.44,3.46-1.43,1.41-2.56,1.79-3.75,2.51-3.96,2.42-2.62,5.15-6.62,8.47-2.5,2.08-3.89,1.73-5.96,4.22-1.18,1.41-1.83,2.85-2.2,3.87Z"/>
  <ellipse class="st2" cx="16" cy="16" rx="14.69" ry="14.58"/>
  <g>
    <path class="st1" d="M13.8,14.2c-3.06,3.57-10.09.87-10.09.87,0,0,5.44-2.24,6.67-3.68s2.54-7.07,2.54-7.07c0,0,3.94,6.31.89,9.88Z"/>
    <path class="st0" d="M18.2,17.8c-3.06,3.57.89,9.88.89,9.88,0,0,1.31-5.63,2.54-7.07s6.67-3.68,6.67-3.68c0,0-7.03-2.7-10.09.87Z"/>
  </g>
</svg>